# 3ds Max Wavefront OBJ Exporter v0.97b - (c)2007 guruware
# File Created: 09.10.2014 14:32:24

mtllib texture.mtl

#
# object Plane001
#

v  -70.8910 0.0000 36.3508
v  -70.8910 0.0000 53.8138
v  -53.5559 0.7918 53.8138
v  -53.5559 1.1877 36.3508
v  -70.8910 0.0000 71.2769
v  -53.5559 0.0000 71.2769
v  -36.2209 0.0000 71.2769
v  -36.2209 1.1877 53.7933
v  -36.2209 2.0766 36.3199
v  -18.8858 0.7918 53.7316
v  -18.8858 2.3678 36.2274
v  -18.8858 0.0000 71.2769
v  -1.5508 0.0000 71.2769
v  -1.5508 1.3366 54.6773
v  -1.5508 3.8508 37.6460
v  15.7843 4.5545 57.6791
v  15.7843 8.3146 42.1486
v  15.7843 0.0000 71.2769
v  33.1194 0.0000 71.2769
v  33.1194 6.8317 59.7145
v  33.1194 10.9968 45.2017
v  50.4544 4.5545 57.7613
v  50.4544 7.1345 42.2720
v  50.4544 0.0000 71.2769
v  67.7895 0.0000 71.2769
v  67.7895 0.0000 53.8138
v  67.7895 0.0000 36.3508
v  -70.8910 0.0000 1.4247
v  -70.8910 0.0000 18.8877
v  -53.5559 0.7918 18.8877
v  -53.5559 0.1980 1.4247
v  -36.2209 2.3678 18.8672
v  -36.2209 2.0671 1.4196
v  -18.8858 5.5124 18.8055
v  -18.8858 7.2788 1.4041
v  -1.5508 8.7202 19.7512
v  -1.5508 11.4095 1.6406
v  15.7843 10.4861 22.7530
v  15.7843 10.0360 2.3910
v  33.1194 9.8284 24.7884
v  33.1194 6.2029 2.8999
v  50.4544 5.7655 22.8352
v  50.4544 2.9552 2.4116
v  67.7895 0.0000 18.8877
v  67.7895 0.0000 1.4247
v  -70.8910 0.0000 -33.5014
v  -70.8910 0.0000 -16.0384
v  -53.5559 0.0000 -16.0384
v  -53.5559 0.7675 -33.5014
v  -36.2209 1.1801 -16.0384
v  -36.2209 1.4463 -33.5014
v  -18.8858 4.7206 -16.0384
v  -18.8858 1.9477 -33.5014
v  -1.5508 7.3836 -16.0384
v  -1.5508 2.0378 -33.5014
v  15.7843 5.9316 -16.0384
v  15.7843 1.4829 -33.5014
v  33.1194 2.9967 -16.0384
v  33.1194 1.0547 -33.5014
v  50.4544 1.2110 -16.0384
v  50.4544 1.5248 -33.5014
v  67.7895 0.0000 -16.0384
v  67.7895 2.4440 -33.5014
v  -70.8910 0.0000 -68.4275
v  -70.8910 0.0000 -50.9644
v  -53.5559 3.0701 -50.9644
v  -53.5559 6.1402 -68.4275
v  -36.2209 4.6052 -50.9644
v  -36.2209 9.2103 -68.4275
v  -18.8858 3.0701 -50.9644
v  -18.8858 6.1402 -68.4275
v  -1.5508 0.7675 -50.9644
v  -1.5508 1.5351 -68.4275
v  15.7843 0.0000 -50.9644
v  15.7843 0.0000 -68.4275
v  33.1194 1.2220 -50.9644
v  33.1194 2.4440 -68.4275
v  50.4544 4.8880 -50.9644
v  50.4544 9.7760 -68.4275
v  67.7895 9.7760 -50.9644
v  67.7895 19.5521 -68.4275
# 81 vertices

vn -0.0627 0.9980 0.0057
vn -0.0343 0.9993 0.0114
vn -0.0342 0.9988 0.0340
vn -0.0534 0.9986 0.0064
vn 0.0000 1.0000 -0.0000
vn -0.0114 0.9994 0.0339
vn -0.0056 0.9981 0.0621
vn -0.0063 0.9986 0.0529
vn -0.0339 0.9989 0.0337
vn -0.0069 0.9977 0.0670
vn -0.0699 0.9902 0.1209
vn 0.0057 0.9987 0.0508
vn -0.0089 0.9974 0.0714
vn -0.1041 0.9860 0.1302
vn -0.1991 0.9592 0.2008
vn -0.1771 0.9424 0.2836
vn -0.2165 0.9575 0.1905
vn -0.0598 0.9635 0.2608
vn -0.0487 0.8824 0.4679
vn -0.0311 0.9271 0.3735
vn 0.0316 0.9907 0.1323
vn 0.1908 0.9584 0.2122
vn 0.2849 0.9581 0.0311
vn 0.0469 0.9318 0.3599
vn 0.1487 0.9790 0.1392
vn 0.3037 0.9520 0.0391
vn 0.3556 0.9344 -0.0197
vn -0.0199 0.9998 -0.0085
vn -0.0513 0.9987 -0.0057
vn -0.0590 0.9981 -0.0191
vn -0.0559 0.9983 -0.0191
vn -0.1166 0.9930 0.0181
vn -0.1799 0.9836 -0.0144
vn -0.1864 0.9734 0.1331
vn -0.2430 0.9700 -0.0055
vn -0.1815 0.9675 0.1759
vn -0.0867 0.9948 -0.0531
vn -0.0404 0.9982 0.0435
vn 0.1313 0.9816 -0.1383
vn 0.1465 0.9852 -0.0890
vn 0.1949 0.9669 -0.1647
vn 0.2625 0.9603 -0.0940
vn 0.1789 0.9781 -0.1061
vn 0.2692 0.9622 -0.0406
vn 0.1422 0.9895 -0.0251
vn -0.0332 0.9994 0.0110
vn -0.0028 1.0000 -0.0028
vn -0.0444 0.9990 0.0058
vn -0.0616 0.9958 0.0673
vn -0.1418 0.9896 -0.0253
vn -0.0618 0.9957 0.0692
vn -0.1633 0.9769 -0.1378
vn -0.0204 0.9985 -0.0500
vn -0.0163 0.9707 -0.2397
vn 0.0366 0.9863 -0.1610
vn 0.1226 0.9655 -0.2297
vn 0.0470 0.9880 -0.1473
vn 0.1250 0.9814 -0.1457
vn 0.0030 0.9989 -0.0462
vn 0.0816 0.9958 -0.0423
vn -0.0472 0.9942 0.0963
vn 0.0394 0.9985 0.0391
vn -0.1041 0.9714 0.2134
vn -0.2539 0.9637 0.0826
vn -0.1422 0.9893 0.0327
vn -0.1458 0.9800 0.1353
vn -0.2276 0.9550 0.1901
vn -0.0249 0.9810 0.1926
vn -0.0199 0.9719 0.2344
vn 0.1029 0.9884 0.1117
vn 0.1827 0.9732 0.1399
vn 0.1024 0.9947 0.0001
vn 0.1626 0.9862 0.0323
vn 0.0042 0.9997 -0.0250
vn -0.0085 0.9998 0.0175
vn -0.1248 0.9908 0.0531
vn -0.2193 0.9687 0.1164
vn -0.2310 0.9465 0.2253
vn -0.3688 0.8769 0.3084
vn -0.3103 0.8775 0.3657
vn -0.4415 0.7829 0.4383
# 81 vertex normals

vt 0.0000 0.2500 0.0000
vt 0.0000 0.1250 0.0000
vt 0.1250 0.1250 0.0000
vt 0.1250 0.2500 0.0000
vt 0.0000 0.0000 0.0000
vt 0.1250 0.0000 0.0000
vt 0.2500 0.0000 0.0000
vt 0.2500 0.1250 0.0000
vt 0.2500 0.2500 0.0000
vt 0.3750 0.1250 0.0000
vt 0.3750 0.2500 0.0000
vt 0.3750 0.0000 0.0000
vt 0.5000 0.0000 0.0000
vt 0.5000 0.1250 0.0000
vt 0.5000 0.2500 0.0000
vt 0.6250 0.1250 0.0000
vt 0.6250 0.2500 0.0000
vt 0.6250 0.0000 0.0000
vt 0.7500 0.0000 0.0000
vt 0.7500 0.1250 0.0000
vt 0.7500 0.2500 0.0000
vt 0.8750 0.1250 0.0000
vt 0.8750 0.2500 0.0000
vt 0.8750 0.0000 0.0000
vt 1.0000 0.0000 0.0000
vt 1.0000 0.1250 0.0000
vt 1.0000 0.2500 0.0000
vt 0.0000 0.5000 0.0000
vt 0.0000 0.3750 0.0000
vt 0.1250 0.3750 0.0000
vt 0.1250 0.5000 0.0000
vt 0.2500 0.3750 0.0000
vt 0.2500 0.5000 0.0000
vt 0.3750 0.3750 0.0000
vt 0.3750 0.5000 0.0000
vt 0.5000 0.3750 0.0000
vt 0.5000 0.5000 0.0000
vt 0.6250 0.3750 0.0000
vt 0.6250 0.5000 0.0000
vt 0.7500 0.3750 0.0000
vt 0.7500 0.5000 0.0000
vt 0.8750 0.3750 0.0000
vt 0.8750 0.5000 0.0000
vt 1.0000 0.3750 0.0000
vt 1.0000 0.5000 0.0000
vt 0.0000 0.7500 0.0000
vt 0.0000 0.6250 0.0000
vt 0.1250 0.6250 0.0000
vt 0.1250 0.7500 0.0000
vt 0.2500 0.6250 0.0000
vt 0.2500 0.7500 0.0000
vt 0.3750 0.6250 0.0000
vt 0.3750 0.7500 0.0000
vt 0.5000 0.6250 0.0000
vt 0.5000 0.7500 0.0000
vt 0.6250 0.6250 0.0000
vt 0.6250 0.7500 0.0000
vt 0.7500 0.6250 0.0000
vt 0.7500 0.7500 0.0000
vt 0.8750 0.6250 0.0000
vt 0.8750 0.7500 0.0000
vt 1.0000 0.6250 0.0000
vt 1.0000 0.7500 0.0000
vt 0.0000 1.0000 0.0000
vt 0.0000 0.8750 0.0000
vt 0.1250 0.8750 0.0000
vt 0.1250 1.0000 0.0000
vt 0.2500 0.8750 0.0000
vt 0.2500 1.0000 0.0000
vt 0.3750 0.8750 0.0000
vt 0.3750 1.0000 0.0000
vt 0.5000 0.8750 0.0000
vt 0.5000 1.0000 0.0000
vt 0.6250 0.8750 0.0000
vt 0.6250 1.0000 0.0000
vt 0.7500 0.8750 0.0000
vt 0.7500 1.0000 0.0000
vt 0.8750 0.8750 0.0000
vt 0.8750 1.0000 0.0000
vt 1.0000 0.8750 0.0000
vt 1.0000 1.0000 0.0000
# 81 texture coords

g Plane001
usemtl 01___Default
s 2
f 1/1/1 2/2/2 3/3/3 
f 3/3/3 4/4/4 1/1/1 
f 2/2/2 5/5/5 6/6/6 
f 6/6/6 3/3/3 2/2/2 
f 7/7/7 8/8/8 3/3/3 
f 3/3/3 6/6/6 7/7/7 
f 8/8/8 9/9/9 4/4/4 
f 4/4/4 3/3/3 8/8/8 
f 9/9/9 8/8/8 10/10/10 
f 10/10/10 11/11/11 9/9/9 
f 8/8/8 7/7/7 12/12/12 
f 12/12/12 10/10/10 8/8/8 
f 13/13/13 14/14/14 10/10/10 
f 10/10/10 12/12/12 13/13/13 
f 14/14/14 15/15/15 11/11/11 
f 11/11/11 10/10/10 14/14/14 
f 15/15/15 14/14/14 16/16/16 
f 16/16/16 17/17/17 15/15/15 
f 14/14/14 13/13/13 18/18/18 
f 18/18/18 16/16/16 14/14/14 
f 19/19/19 20/20/20 16/16/16 
f 16/16/16 18/18/18 19/19/19 
f 20/20/20 21/21/21 17/17/17 
f 17/17/17 16/16/16 20/20/20 
f 21/21/21 20/20/20 22/22/22 
f 22/22/22 23/23/23 21/21/21 
f 20/20/20 19/19/19 24/24/24 
f 24/24/24 22/22/22 20/20/20 
f 25/25/25 26/26/26 22/22/22 
f 22/22/22 24/24/24 25/25/25 
f 26/26/26 27/27/27 23/23/23 
f 23/23/23 22/22/22 26/26/26 
f 28/28/28 29/29/29 30/30/30 
f 30/30/30 31/31/31 28/28/28 
f 29/29/29 1/1/1 4/4/4 
f 4/4/4 30/30/30 29/29/29 
f 9/9/9 32/32/32 30/30/30 
f 30/30/30 4/4/4 9/9/9 
f 32/32/32 33/33/33 31/31/31 
f 31/31/31 30/30/30 32/32/32 
f 33/33/33 32/32/32 34/34/34 
f 34/34/34 35/35/35 33/33/33 
f 32/32/32 9/9/9 11/11/11 
f 11/11/11 34/34/34 32/32/32 
f 15/15/15 36/36/36 34/34/34 
f 34/34/34 11/11/11 15/15/15 
f 36/36/36 37/37/37 35/35/35 
f 35/35/35 34/34/34 36/36/36 
f 37/37/37 36/36/36 38/38/38 
f 38/38/38 39/39/39 37/37/37 
f 36/36/36 15/15/15 17/17/17 
f 17/17/17 38/38/38 36/36/36 
f 21/21/21 40/40/40 38/38/38 
f 38/38/38 17/17/17 21/21/21 
f 40/40/40 41/41/41 39/39/39 
f 39/39/39 38/38/38 40/40/40 
f 41/41/41 40/40/40 42/42/42 
f 42/42/42 43/43/43 41/41/41 
f 40/40/40 21/21/21 23/23/23 
f 23/23/23 42/42/42 40/40/40 
f 27/27/27 44/44/44 42/42/42 
f 42/42/42 23/23/23 27/27/27 
f 44/44/44 45/45/45 43/43/43 
f 43/43/43 42/42/42 44/44/44 
f 46/46/46 47/47/47 48/48/48 
f 48/48/48 49/49/49 46/46/46 
f 47/47/47 28/28/28 31/31/31 
f 31/31/31 48/48/48 47/47/47 
f 33/33/33 50/50/50 48/48/48 
f 48/48/48 31/31/31 33/33/33 
f 50/50/50 51/51/51 49/49/49 
f 49/49/49 48/48/48 50/50/50 
f 51/51/51 50/50/50 52/52/52 
f 52/52/52 53/53/53 51/51/51 
f 50/50/50 33/33/33 35/35/35 
f 35/35/35 52/52/52 50/50/50 
f 37/37/37 54/54/54 52/52/52 
f 52/52/52 35/35/35 37/37/37 
f 54/54/54 55/55/55 53/53/53 
f 53/53/53 52/52/52 54/54/54 
f 55/55/55 54/54/54 56/56/56 
f 56/56/56 57/57/57 55/55/55 
f 54/54/54 37/37/37 39/39/39 
f 39/39/39 56/56/56 54/54/54 
f 41/41/41 58/58/58 56/56/56 
f 56/56/56 39/39/39 41/41/41 
f 58/58/58 59/59/59 57/57/57 
f 57/57/57 56/56/56 58/58/58 
f 59/59/59 58/58/58 60/60/60 
f 60/60/60 61/61/61 59/59/59 
f 58/58/58 41/41/41 43/43/43 
f 43/43/43 60/60/60 58/58/58 
f 45/45/45 62/62/62 60/60/60 
f 60/60/60 43/43/43 45/45/45 
f 62/62/62 63/63/63 61/61/61 
f 61/61/61 60/60/60 62/62/62 
f 64/64/64 65/65/65 66/66/66 
f 66/66/66 67/67/67 64/64/64 
f 65/65/65 46/46/46 49/49/49 
f 49/49/49 66/66/66 65/65/65 
f 51/51/51 68/68/68 66/66/66 
f 66/66/66 49/49/49 51/51/51 
f 68/68/68 69/69/69 67/67/67 
f 67/67/67 66/66/66 68/68/68 
f 69/69/69 68/68/68 70/70/70 
f 70/70/70 71/71/71 69/69/69 
f 68/68/68 51/51/51 53/53/53 
f 53/53/53 70/70/70 68/68/68 
f 55/55/55 72/72/72 70/70/70 
f 70/70/70 53/53/53 55/55/55 
f 72/72/72 73/73/73 71/71/71 
f 71/71/71 70/70/70 72/72/72 
f 73/73/73 72/72/72 74/74/74 
f 74/74/74 75/75/75 73/73/73 
f 72/72/72 55/55/55 57/57/57 
f 57/57/57 74/74/74 72/72/72 
f 59/59/59 76/76/76 74/74/74 
f 74/74/74 57/57/57 59/59/59 
f 76/76/76 77/77/77 75/75/75 
f 75/75/75 74/74/74 76/76/76 
f 77/77/77 76/76/76 78/78/78 
f 78/78/78 79/79/79 77/77/77 
f 76/76/76 59/59/59 61/61/61 
f 61/61/61 78/78/78 76/76/76 
f 63/63/63 80/80/80 78/78/78 
f 78/78/78 61/61/61 63/63/63 
f 80/80/80 81/81/81 79/79/79 
f 79/79/79 78/78/78 80/80/80 
# 128 faces

